<svg width="94" height="94" viewBox="0 0 94 94" fill="none" xmlns="http://www.w3.org/2000/svg">
<title>Focus on What Matters</title>
<path d="M10.644 42.5V17.876H15.36V42.5H10.644ZM6.576 29.252V25.112H19.428V29.252H6.576ZM33.5743 42.86C31.7503 42.86 30.1303 42.476 28.7143 41.708C27.2983 40.916 26.1703 39.836 25.3303 38.468C24.5143 37.1 24.1063 35.54 24.1063 33.788C24.1063 32.06 24.5023 30.524 25.2943 29.18C26.1103 27.812 27.2143 26.732 28.6063 25.94C29.9983 25.124 31.5463 24.716 33.2503 24.716C34.9303 24.716 36.4063 25.1 37.6783 25.868C38.9743 26.612 39.9823 27.644 40.7023 28.964C41.4463 30.26 41.8183 31.736 41.8183 33.392C41.8183 33.704 41.7943 34.028 41.7463 34.364C41.7223 34.676 41.6623 35.036 41.5663 35.444L26.9503 35.48V31.952L39.3703 31.916L37.4623 33.392C37.4143 32.36 37.2223 31.496 36.8863 30.8C36.5743 30.104 36.1063 29.576 35.4823 29.216C34.8823 28.832 34.1383 28.64 33.2503 28.64C32.3143 28.64 31.4983 28.856 30.8023 29.288C30.1063 29.696 29.5663 30.284 29.1823 31.052C28.8223 31.796 28.6423 32.684 28.6423 33.716C28.6423 34.772 28.8343 35.696 29.2183 36.488C29.6263 37.256 30.2023 37.856 30.9463 38.288C31.6903 38.696 32.5543 38.9 33.5383 38.9C34.4263 38.9 35.2303 38.756 35.9503 38.468C36.6703 38.156 37.2943 37.7 37.8223 37.1L40.5943 39.872C39.7543 40.856 38.7223 41.6 37.4983 42.104C36.2983 42.608 34.9903 42.86 33.5743 42.86ZM56.5429 42.86C54.7669 42.86 53.1709 42.464 51.7549 41.672C50.3389 40.88 49.2229 39.8 48.4069 38.432C47.5909 37.064 47.1829 35.528 47.1829 33.824C47.1829 32.096 47.5909 30.548 48.4069 29.18C49.2229 27.812 50.3389 26.732 51.7549 25.94C53.1949 25.124 54.7909 24.716 56.5429 24.716C57.9109 24.716 59.1709 24.968 60.3229 25.472C61.4749 25.976 62.4709 26.696 63.3109 27.632L60.2869 30.692C59.8309 30.188 59.2789 29.804 58.6309 29.54C58.0069 29.276 57.3109 29.144 56.5429 29.144C55.6789 29.144 54.8989 29.348 54.2029 29.756C53.5309 30.14 52.9909 30.68 52.5829 31.376C52.1989 32.048 52.0069 32.852 52.0069 33.788C52.0069 34.7 52.1989 35.516 52.5829 36.236C52.9909 36.932 53.5309 37.484 54.2029 37.892C54.8989 38.276 55.6789 38.468 56.5429 38.468C57.3349 38.468 58.0429 38.336 58.6669 38.072C59.3149 37.784 59.8669 37.376 60.3229 36.848L63.3829 39.908C62.4949 40.868 61.4749 41.6 60.3229 42.104C59.1709 42.608 57.9109 42.86 56.5429 42.86ZM81.3536 42.5V32.528C81.3536 31.496 81.0296 30.656 80.3816 30.008C79.7336 29.36 78.8936 29.036 77.8616 29.036C77.1896 29.036 76.5896 29.18 76.0616 29.468C75.5336 29.756 75.1136 30.164 74.8016 30.692C74.5136 31.22 74.3696 31.832 74.3696 32.528L72.5336 31.592C72.5336 30.224 72.8216 29.036 73.3976 28.028C73.9736 26.996 74.7656 26.192 75.7736 25.616C76.8056 25.04 77.9816 24.752 79.3016 24.752C80.6216 24.752 81.7856 25.04 82.7936 25.616C83.8256 26.192 84.6296 26.984 85.2056 27.992C85.7816 29 86.0696 30.164 86.0696 31.484V42.5H81.3536ZM69.6536 42.5V16.472H74.3696V42.5H69.6536Z" fill="#2E8555"/>
<path d="M9.392 71.5V52.628H11.912V71.5H9.392ZM6.116 60.496V58.2H15.188V60.496H6.116ZM29.0624 71.78C27.8491 71.78 26.7478 71.4813 25.7584 70.884C24.7691 70.268 23.9851 69.4373 23.4064 68.392C22.8464 67.3467 22.5664 66.1707 22.5664 64.864C22.5664 63.5573 22.8464 62.3813 23.4064 61.336C23.9851 60.2907 24.7598 59.46 25.7304 58.844C26.7198 58.228 27.8304 57.92 29.0624 57.92C30.0704 57.92 30.9664 58.1347 31.7504 58.564C32.5531 58.9747 33.1971 59.5533 33.6824 60.3C34.1678 61.028 34.4384 61.8773 34.4944 62.848V66.852C34.4384 67.804 34.1678 68.6533 33.6824 69.4C33.2158 70.1467 32.5811 70.7347 31.7784 71.164C30.9944 71.5747 30.0891 71.78 29.0624 71.78ZM29.4824 69.4C30.7331 69.4 31.7411 68.98 32.5064 68.14C33.2718 67.2813 33.6544 66.1893 33.6544 64.864C33.6544 63.9493 33.4771 63.156 33.1224 62.484C32.7864 61.7933 32.3011 61.2613 31.6664 60.888C31.0318 60.496 30.2944 60.3 29.4544 60.3C28.6144 60.3 27.8678 60.496 27.2144 60.888C26.5798 61.28 26.0758 61.8213 25.7024 62.512C25.3478 63.184 25.1704 63.9587 25.1704 64.836C25.1704 65.732 25.3478 66.5253 25.7024 67.216C26.0758 67.888 26.5891 68.42 27.2424 68.812C27.8958 69.204 28.6424 69.4 29.4824 69.4ZM33.4864 71.5V67.916L33.9624 64.668L33.4864 61.448V58.2H36.0344V71.5H33.4864ZM45.8633 71.5V51.508H48.3833V71.5H45.8633ZM66.7423 71.5L60.5263 64.696L66.6863 58.2H69.7383L62.8783 65.368L62.9903 63.912L69.9903 71.5H66.7423ZM58.2303 71.5V51.508H60.7503V71.5H58.2303ZM81.7707 71.78C81.024 71.78 80.3147 71.6867 79.6427 71.5C78.9894 71.2947 78.3827 71.0147 77.8227 70.66C77.2627 70.2867 76.7774 69.848 76.3667 69.344L77.9907 67.72C78.476 68.3173 79.036 68.7653 79.6707 69.064C80.3054 69.344 81.0147 69.484 81.7987 69.484C82.5827 69.484 83.1894 69.3533 83.6187 69.092C84.048 68.812 84.2627 68.4293 84.2627 67.944C84.2627 67.4587 84.0854 67.0853 83.7307 66.824C83.3947 66.544 82.956 66.32 82.4147 66.152C81.8734 65.9653 81.2947 65.788 80.6787 65.62C80.0814 65.4333 79.512 65.2 78.9707 64.92C78.4294 64.64 77.9814 64.2573 77.6267 63.772C77.2907 63.2867 77.1227 62.6427 77.1227 61.84C77.1227 61.0373 77.3187 60.3467 77.7107 59.768C78.1027 59.1707 78.644 58.7133 79.3347 58.396C80.044 58.0787 80.8934 57.92 81.8827 57.92C82.928 57.92 83.852 58.1067 84.6547 58.48C85.476 58.8347 86.148 59.376 86.6707 60.104L85.0467 61.728C84.6734 61.2427 84.2067 60.8693 83.6467 60.608C83.1054 60.3467 82.4894 60.216 81.7987 60.216C81.0707 60.216 80.5107 60.3467 80.1187 60.608C79.7454 60.8507 79.5587 61.196 79.5587 61.644C79.5587 62.092 79.7267 62.4373 80.0627 62.68C80.3987 62.9227 80.8374 63.128 81.3787 63.296C81.9387 63.464 82.5174 63.6413 83.1147 63.828C83.712 63.996 84.2814 64.2293 84.8227 64.528C85.364 64.8267 85.8027 65.228 86.1387 65.732C86.4934 66.236 86.6707 66.8987 86.6707 67.72C86.6707 68.9707 86.2227 69.96 85.3267 70.688C84.4494 71.416 83.264 71.78 81.7707 71.78Z" fill="#2E8555"/>
<rect x="0.5" y="0.5" width="93" height="93" rx="5.5" stroke="#2E8555"/>
</svg>
